<svg width="80" height="48" viewBox="0 0 80 48" fill="none" xmlns="http://www.w3.org/2000/svg">
<path d="M78.853 11.6527C77.0645 3.9357 62.8336 0 47.7473 0C42.6926 0 37.6379 0.463023 32.8165 1.3119C12.52 5.09325 -1.47756 14.5852 0.54431 24.6174C2.0996 32.566 13.0644 37.119 26.7509 37.119C31.8056 37.119 37.2491 36.5017 42.6926 35.1898C48.836 33.6463 53.9684 31.8714 58.9454 29.865L57.5456 34.9582H70.1434L73.7206 24L77.4533 12.5016H41.2928L37.7157 20.2958H59.9563V20.373C55.8348 23.1512 49.8469 25.5434 42.8481 27.0097C37.6379 28.1672 32.7388 28.7846 28.6172 28.7846C21.9295 28.7846 17.2637 27.0097 16.4082 22.3023C15.2418 15.5884 24.1847 9.87783 37.949 6.94535C41.6039 6.17364 45.4144 5.78779 48.9915 5.78779C57.7789 5.78779 65.2443 7.94856 65.9442 11.4212C65.9442 11.4212 67.2662 11.4984 69.0547 11.4984C72.6319 11.4984 77.9976 11.4212 77.9976 11.4212V19.8328C78.7753 18.1351 79.3974 14.3537 78.853 11.6527Z" fill="#D12125"/>
<path d="M65.0889 11.6527H63.6891C60.1897 6.86809 44.7924 8.10282 39.1156 9.56906C26.5177 12.8874 19.2079 18.3665 20.3744 26.4694C18.6635 25.5434 17.6526 24.1543 17.2638 22.3022C16.9527 20.2958 17.4971 17.2861 22.0852 14.1221C25.8179 11.5755 31.3391 9.41472 38.1824 7.94848C41.604 7.17678 45.4145 6.79092 49.0694 6.79092C53.3464 6.79092 57.3124 7.33112 60.2675 8.25716C63.067 9.18321 64.8556 10.3408 65.0889 11.6527Z" fill="#333333"/>
<path d="M56.9235 21.222C53.0353 23.3056 48.0583 25.0805 42.6926 26.2381C40.4374 26.7011 38.3378 27.0869 36.3937 27.3956V21.222H56.9235Z" fill="#333333"/>
<path d="M77.1423 16.3601V28.4758L74.576 36.4244L70.9989 47.3826L70.7656 48H56.768V41.9035C45.8032 45.9164 35.305 47.0739 30.017 47.0739C15.1641 47.0739 2.72175 42.7524 1.16647 34.7267C0.855408 33.0289 0.155529 29.4019 0 26.0836C2.4107 33.3376 12.6756 37.9678 26.6732 37.9678C31.9612 37.9678 37.4047 37.2733 42.7704 35.9614C47.7473 34.7267 52.3354 33.2604 57.4679 31.254L56.6902 34.7267L56.3792 35.807H70.7656L70.9989 35.1897L74.576 24.2315L77.1423 16.3601Z" fill="#333333"/>
</svg>
